# AST/ASF file generated using VICON BodyLanguage
# -----------------------------------------------
:version 1.10
:name VICON
:units
  mass 1.0
  length 0.45
  angle deg
:documentation
   .ast/.asf automatically generated from VICON data using
   VICON BodyBuilder and BodyLanguage model FoxedUp or BRILLIANT.MOD
:root
   order TX TY TZ RX RY RZ
   axis XYZ
   position 0 0 0  
   orientation 0 0 0 
:bonedata
  begin
     id 1 
     name lhipjoint
     direction 0.650112 -0.723553 0.232005 
     length 2.45805 
     axis 0 0 0  XYZ
  end
  begin
     id 2 
     name lfemur
     direction 0.34202 -0.939693 0  
     length 7.00073  
     axis 0 0 20  XYZ
    dof rx ry rz
    limits (-160.0 20.0)
           (-70.0 70.0)
           (-60.0 70.0)
  end
  begin
     id 3 
     name ltibia
     direction 0.34202 -0.939693 0   
     length 7.8748   
     axis 0 0 20   XYZ
    dof rx
    limits (-10.0 170.0)
  end
  begin
     id 4 
     name lfoot
     direction 0.0542825 -0.14914 0.987325   
     length 1.75978   
     axis -90 7.62852e-016 20   XYZ
    dof rx rz
    limits (-45.0 90.0)
           (-70.0 20.0)
  end
  begin
     id 5 
     name ltoes
     direction 1.53509e-011 -4.21906e-011 1   
     length 0.893912   
     axis -90 7.62852e-016 20   XYZ
    dof rx
    limits (-90.0 20.0)
  end
  begin
     id 6 
     name rhipjoint
     direction -0.637897 -0.733345 0.235145   
     length 2.42522  
     axis 0 0 0  XYZ 
  end
  begin
     id 7 
     name rfemur
     direction -0.34202 -0.939693 0   
     length 7.02549   
     axis 0 0 -20   XYZ
    dof rx ry rz
    limits (-160.0 20.0)
           (-70.0 70.0)
           (-70.0 60.0)
  end
  begin
     id 8 
     name rtibia
     direction -0.34202 -0.939693 0   
     length 7.71512   
     axis 0 0 -20   XYZ
    dof rx
    limits (-10.0 170.0)
 end
 begin
     id 9 
     name rfoot
     direction -0.0822618 -0.226012 0.970645   
     length 1.90014  
     axis -90 -7.62852e-016 -20   XYZ
    dof rx rz
    limits (-45.0 90.0)
           (-20.0 70.0)
  end
  begin
     id 10 
     name rtoes
     direction -1.53542e-011 -4.21872e-011 1   
     length 0.957341   
     axis -90 -7.62852e-016 -20   XYZ
    dof rx
    limits (-90.0 20.0)
  end
  begin
     id 11 
     name lowerback
     direction -0.0022947 0.999774 -0.0211557   
     length 1.89909   
     axis 0 0 0   XYZ
    dof rx ry rz
    limits (-20.0 45.0)
           (-30.0 30.0)
           (-30.0 30.0)
  end
  begin
     id 12 
     name upperback
     direction 0.0107737 0.998635 0.0511027   
     length 1.8853   
     axis 0 0 0   XYZ
    dof rx ry rz
    limits (-20.0 45.0)
           (-30.0 30.0)
           (-30.0 30.0)
  end
  begin
     id 13 
     name thorax
     direction 0.011824 0.998136 0.0598754   
     length 1.88911   
     axis 0 0 0   XYZ
    dof rx ry rz
    limits (-20.0 45.0)
           (-30.0 30.0)
           (-30.0 30.0)
  end
  begin
     id 14 
     name lowerneck
     direction -0.0685355 0.990319 0.120714   
     length 1.91222   
     axis 0 0 0   XYZ
    dof rx ry rz
    limits (-20.0 45.0)
           (-30.0 30.0)
           (-30.0 30.0)
  end
  begin
     id 15 
     name upperneck
     direction 0.0886204 0.955665 -0.280805   
     length 1.92526   
     axis 0 0 0   XYZ
    dof rx ry rz
    limits (-20.0 45.0)
           (-30.0 30.0)
           (-30.0 30.0)
  end
  begin
     id 16
     name head
     direction 0.0233423 0.993502 -0.111393  
     length 1.96056  
     axis 0 0 0   XYZ
    dof rx ry rz
    limits (-20.0 45.0)
           (-30.0 30.0)
           (-30.0 30.0)
  end
  begin
     id 17 
     name lclavicle
     direction 0.941873 0.32922 0.0670041  
     length 3.31705  
     axis 0 0 0   XYZ
    dof ry rz
    limits (-20.0 10.0)
           (0.0 20.0)
  end
  begin
     id 18 
     name lhumerus
     direction 1 -4.4898e-011 3.38707e-028   
     length 5.29277   
     axis 180 -30 -90   XYZ
    dof rx ry rz
    limits (-60.0 90.0)
           (-90.0 90.0)
           (-90.0 90.0)
  end
  begin
     id 19
     name lradius
     direction 1 -4.48952e-011 1.63213e-028   
     length 2.85226   
     axis 180 -30 -90   XYZ
    dof rx
    limits (-10.0 170.0)
  end
  begin
     id 20
     name lwrist
     direction 1 -4.49001e-011 1.27856e-027   
     length 1.42613   
     axis -1.61767e-015 90 90   XYZ
    dof ry
    limits (-180.0 0.0)
 end
  begin
     id 21 
     name lhand
     direction 1 -4.48976e-011 2.55931e-027   
     length 0.602097   
     axis -1.63363e-015 90 90   XYZ
    dof rx rz
    limits (-90.0 90.0)
           (-45.0 45.0)
  end
  begin
     id 22 
     name lfingers
     direction 1 -4.48986e-011 5.11684e-027   
     length 0.485426   
     axis -3.26723e-015 90 90   XYZ
    dof rx
    limits (0.0 90.0)
  end
  begin
     id 23
     name lthumb
     direction 0.707107 -6.34915e-011 0.707107   
     length 0.696978   
     axis -90 45 -2.25915e-014   XYZ
    dof rx rz
    limits (-45.0 45.0)
           (-45.0 45.0)
  end
  begin
     id 24 
     name rclavicle
     direction -0.939974 0.327078 0.0973096   
     length 3.10337  
     axis 0 0 0   XYZ 
    dof ry rz
    limits (-10.0 20.0)
           (-20.0 0.0)
  end
  begin
     id 25 
     name rhumerus
     direction -1 -4.48975e-011 1.83745e-027  
     length 5.13304   
     axis 180 30 90   XYZ
    dof rx ry rz
    limits (-90.0 60.0)
           (-90.0 90.0)
           (-90.0 90.0)
  end
  begin
     id 26 
     name rradius
     direction -1 -4.48977e-011 7.1775e-029   
     length 2.74305   
     axis 180 30 90   XYZ
    dof rx
    limits (-10.0 170.0)
  end
  begin
     id 27 
     name rwrist
     direction -1 -4.48977e-011 1.27963e-027   
     length 1.37152   
     axis -1.61767e-015 -90 -90   XYZ
    dof ry
    limits (-180.0 0.0)
  end
  begin
     id 28
     name rhand
     direction -1 -4.4888e-011 2.56782e-027   
     length 0.767976   
     axis -1.63363e-015 -90 -90   XYZ
    dof rx rz
    limits (-90.0 90.0)
           (-45.0 45.0)
  end
  begin
     id 29
     name rfingers
     direction -1 -4.48947e-011 5.12384e-027   
     length 0.619162   
     axis -3.26723e-015 -90 -90   XYZ
    dof rx
    limits (0.0 90.0)
  end
  begin
     id 30
     name rthumb
     direction -0.707107 -6.34857e-011 0.707107   
     length 0.888997   
     axis -90 -45 2.25915e-014   XYZ
    dof rx rz
    limits (-45.0 45.0)
           (-45.0 45.0)
  end
:hierarchy
  begin
    root lhipjoint rhipjoint lowerback
    lhipjoint lfemur
    lfemur ltibia
    ltibia lfoot
    lfoot ltoes
    rhipjoint rfemur
    rfemur rtibia
    rtibia rfoot
    rfoot rtoes
    lowerback upperback
    upperback thorax
    thorax lowerneck lclavicle rclavicle
    lowerneck upperneck
    upperneck head
    lclavicle lhumerus
    lhumerus lradius
    lradius lwrist
    lwrist lhand lthumb
    lhand lfingers
    rclavicle rhumerus
    rhumerus rradius
    rradius rwrist
    rwrist rhand rthumb
    rhand rfingers
  end

#!OML:ASF F:\VICON\USERDATA\INSTALL\rory3\rory3.ASF
:FULLY-SPECIFIED
:DEGREES
1450
root 0.252879 16.9608 0.268433 -9.30866 2.51006 -1.93909
lowerback -6.65485 -0.174518 -0.224161
upperback -1.5683 -0.220604 0.200155
thorax 2.11547 -0.110666 0.313361
lowerneck 12.504 -8.66125 -20.1043
upperneck 31.6685 -17.001 12.8473
head 11.2778 -9.54738 7.01256
rclavicle 1.44119e-015 4.37326e-015
rhumerus 65.9548 -36.1837 -56.3626
rradius 119.948
rwrist -45.9161
rhand 43.4377 18.3552
rfingers 7.12502
rthumb 65.1762 11.4744
lclavicle 1.44119e-015 4.37326e-015
lhumerus 57.9764 17.8151 54.5429
lradius 114.746
lwrist 66.5412
lhand 30.3137 31.7201
lfingers 7.12502
lthumb 53.9888 50.5657
rfemur 10.3308 8.03936 22.4875
rtibia 19.2807
rfoot -19.4173 -12.8352
rtoes -24.2801
lfemur 5.35195 -13.1338 -19.511
ltibia 27.0397
lfoot -21.2445 6.07763
ltoes -24.1083
1451
root 0.254476 16.9616 0.258712 -9.39205 2.54354 -1.83653
lowerback -6.6644 -0.166425 -0.321681
upperback -1.46198 -0.202457 0.169637
thorax 2.23035 -0.102444 0.338062
lowerneck 12.4878 -8.70902 -20.1568
upperneck 31.5121 -17.028 12.779
head 11.2215 -9.56516 6.98307
rclavicle 9.19379e-015 5.1684e-015
rhumerus 66.7163 -35.5559 -58.1475
rradius 119.96
rwrist -46.0367
rhand 43.7691 18.3401
rfingers 7.12502
rthumb 65.4361 11.9064
lclavicle 9.19379e-015 5.1684e-015
lhumerus 58.3418 17.205 56.2868
lradius 114.571
lwrist 66.4325
lhand 30.8944 31.7468
lfingers 7.12502
lthumb 54.5092 50.2346
rfemur 10.3889 7.93819 22.3349
rtibia 19.2967
rfoot -19.4776 -12.7204
rtoes -23.9545
lfemur 5.39462 -13.1301 -19.6458
ltibia 27.0761
lfoot -21.3303 5.83291
ltoes -22.63
1452
root 0.255542 16.9613 0.245992 -9.38442 2.56147 -1.79687
lowerback -6.74543 -0.159507 -0.39989
upperback -1.37443 -0.188219 0.194753
thorax 2.36588 -0.0963173 0.408746
lowerneck 12.4254 -8.72971 -20.3108
upperneck 31.416 -17.0443 12.7946
head 11.2154 -9.58289 7.00419
rclavicle -4.82053e-015 1.98785e-015
rhumerus 67.4138 -34.852 -59.8174
rradius 119.998
rwrist -45.9395
rhand 43.8408 18.3665
rfingers 7.12502
rthumb 65.4921 12.0308
lclavicle -4.82053e-015 1.98785e-015
lhumerus 58.7287 16.5984 58.1519
lradius 114.428
lwrist 66.2601
lhand 31.5128 31.8033
lfingers 7.12502
lthumb 55.0616 49.8973
rfemur 10.2311 7.94817 22.2668
rtibia 19.3643
rfoot -19.4638 -12.7374
rtoes -23.9515
lfemur 5.32572 -13.1054 -19.6734
ltibia 27.082
lfoot -21.3961 5.51412
ltoes -20.8345
1453
root 0.255725 16.959 0.232879 -9.43096 2.58584 -1.92556
lowerback -6.76461 -0.154617 -0.349818
upperback -1.3284 -0.18805 0.299651
thorax 2.4242 -0.0963614 0.488538
lowerneck 12.4381 -8.72148 -20.4976
upperneck 31.3096 -17.0259 12.7858
head 11.1861 -9.59301 7.02914
rclavicle 6.60959e-015 1.19271e-014
rhumerus 67.998 -34.1233 -61.3108
rradius 120.01
rwrist -45.9876
rhand 43.9226 18.3527
rfingers 7.12502
rthumb 65.5559 12.1294
lclavicle 6.60959e-015 1.19271e-014
lhumerus 58.9278 15.8924 60.0205
lradius 114.368
lwrist 66.1179
lhand 32.104 32.1836
lfingers 7.12502
lthumb 55.5879 49.8883
rfemur 10.1182 7.98266 22.4176
rtibia 19.4187
rfoot -19.4902 -12.8448
rtoes -23.9132
lfemur 5.28241 -13.102 -19.5162
ltibia 27.1067
lfoot -21.4119 5.3618
ltoes -20.3943
1454
root 0.255584 16.9623 0.220376 -9.50338 2.64057 -2.01859
lowerback -6.73188 -0.137002 -0.285184
upperback -1.23517 -0.170435 0.336037
thorax 2.50174 -0.0875873 0.491215
lowerneck 12.1992 -8.79142 -20.1738
upperneck 31.2291 -16.9445 12.4322
head 11.1078 -9.52364 6.82882
rclavicle -6.85807e-015 -3.57812e-015
rhumerus 68.4955 -33.4348 -62.7931
rradius 119.982
rwrist -45.9227
rhand 43.8894 18.6014
rfingers 7.12502
rthumb 65.5301 12.3326
lclavicle -6.85807e-015 -3.57812e-015
lhumerus 59.1825 15.1836 61.7842
lradius 114.342
lwrist 66.0673
lhand 32.4529 32.5381
lfingers 7.12502
lthumb 55.8976 50.007
rfemur 10.1422 7.84031 22.5155
rtibia 19.4381
rfoot -19.4526 -12.9195
rtoes -24.1813
lfemur 5.25784 -13.0964 -19.4053
ltibia 27.1539
lfoot -21.3609 5.1748
ltoes -19.5395
1455
root 0.255634 16.9646 0.210243 -9.57037 2.74049 -1.97025
lowerback -6.73223 -0.126437 -0.328528
upperback -1.10935 -0.152056 0.28579
thorax 2.6314 -0.0791786 0.465343
lowerneck 11.7157 -8.93478 -19.5087
upperneck 31.2576 -16.8584 11.8509
head 11.058 -9.41906 6.475
rclavicle -5.41688e-015 -8.15017e-015
rhumerus 68.9475 -32.7199 -64.3209
rradius 119.994
rwrist -45.8127
rhand 43.83 18.814
rfingers 7.12502
rthumb 65.4837 12.4636
lclavicle -5.41688e-015 -8.15017e-015
lhumerus 59.5901 14.5516 63.4361
lradius 114.224
lwrist 66.0219
lhand 32.7958 32.709
lfingers 7.12502
lthumb 56.2014 49.9415
rfemur 10.2482 7.70736 22.446
rtibia 19.4496
rfoot -19.4402 -12.8561
rtoes -24.5884
lfemur 5.2423 -13.1282 -19.4681
ltibia 27.2215
lfoot -21.365 4.95722
ltoes -18.4525
1456
root 0.25519 16.9603 0.200495 -9.62916 2.78146 -1.92518
lowerback -6.75024 -0.136226 -0.355053
upperback -1.01851 -0.161901 0.241745
thorax 2.73517 -0.0845728 0.433896
lowerneck 11.465 -8.99663 -19.486
upperneck 31.3142 -16.8757 11.7345
head 11.1156 -9.42082 6.40837
rclavicle -1.49089e-015 1.98785e-015
rhumerus 69.4169 -31.8553 -65.9779
rradius 120.039
rwrist -45.7384
rhand 43.7955 18.8413
rfingers 7.12502
rthumb 65.4568 12.4436
lclavicle -1.49089e-015 1.98785e-015
lhumerus 59.8449 13.9665 64.9813
lradius 114.2
lwrist 66.0143
lhand 33.1956 33.0717
lfingers 7.12502
lthumb 56.5547 50.0227
rfemur 10.2982 7.77005 22.4044
rtibia 19.4982
rfoot -19.3677 -12.8389
rtoes -24.649
lfemur 5.22329 -13.1506 -19.5243
ltibia 27.2981
lfoot -21.334 5.19947
ltoes -20.22
1457
root 0.254115 16.9562 0.189217 -9.66416 2.80314 -1.97707
lowerback -6.7362 -0.112275 -0.299663
upperback -0.965741 -0.133364 0.215496
thorax 2.78127 -0.0699309 0.378292
lowerneck 11.4168 -9.01008 -19.8166
upperneck 31.333 -16.9742 11.9763
head 11.2115 -9.48676 6.54021
rclavicle -6.95746e-016 5.96354e-015
rhumerus 69.7593 -31.0715 -67.5468
rradius 120.046
rwrist -45.7584
rhand 43.7447 18.7997
rfingers 7.12502
rthumb 65.4171 12.3329
lclavicle -6.95746e-016 5.96354e-015
lhumerus 60.064 13.2619 66.4809
lradius 114.214
lwrist 65.9599
lhand 33.4683 33.5038
lfingers 7.12502
lthumb 56.7951 50.2592
rfemur 10.2871 7.82254 22.4738
rtibia 19.5062
rfoot -19.1869 -12.9155
rtoes -24.7775
lfemur 5.14914 -13.1348 -19.4433
ltibia 27.3969
lfoot -21.3653 5.23937
ltoes -20.9744
1458
root 0.254416 16.9554 0.177412 -9.69689 2.84499 -2.0286
lowerback -6.69351 -0.0416204 -0.174009
upperback -0.945043 -0.0458075 0.122383
thorax 2.77782 -0.0247673 0.219694
lowerneck 11.5409 -9.06248 -19.8246
upperneck 31.2288 -17.0876 12.0805
head 11.1811 -9.53787 6.57343
rclavicle -6.65929e-015 -2.38542e-015
rhumerus 69.9293 -30.3729 -69.0287
rradius 120.058
rwrist -45.7445
rhand 43.5109 18.8441
rfingers 7.12502
rthumb 65.2337 12.0611
lclavicle -6.65929e-015 -2.38542e-015
lhumerus 60.2906 12.4769 67.9522
lradius 114.145
lwrist 65.9015
lhand 33.899 33.6209
lfingers 7.12502
lthumb 57.174 50.0611
rfemur 10.283 7.79039 22.5251
rtibia 19.464
rfoot -19.0738 -12.9635
rtoes -25.0296
lfemur 5.06971 -13.1356 -19.3761
ltibia 27.5052
lfoot -21.4318 5.10323
ltoes -20.4126
